<svg
  xmlns="http://www.w3.org/2000/svg"
  fill="none"
  viewBox="0 0 24 24"
>
  <path
    fill="currentColor"
    d="M5.75 4a.75.75 0 0 1 .75.75v14.5a.75.75 0 0 1-1.5 0V4.75A.75.75 0 0 1 5.75 4Zm12.5 4a.75.75 0 0 1 .75.75v10.5a.75.75 0 0 1-1.5 0V8.75a.75.75 0 0 1 .75-.75ZM12 10a.75.75 0 0 1 .75.75v8.5a.75.75 0 0 1-1.5 0v-8.5A.75.75 0 0 1 12 10Zm-8.5 9.25a.75.75 0 0 1 .75-.75h15.5a.75.75 0 0 1 0 1.5H4.25a.75.75 0 0 1-.75-.75ZM8.47 6.47a.75.75 0 0 1 1.06 0l1.72 1.72 4.22-4.22a.75.75 0 1 1 1.06 1.06l-4.75 4.75a.75.75 0 0 1-1.06 0L8.47 7.53a.75.75 0 0 1 0-1.06Z"
  />
</svg>
